<svg width="40" height="37" viewBox="0 0 40 37" fill="none" xmlns="http://www.w3.org/2000/svg">
<path d="M39.1596 12.3467L37.5166 21.5584C37.314 22.576 36.4844 23.1947 35.5277 23.2063H11.5742L11.0986 25.8261H33.928C35.1301 25.9154 35.9455 26.7476 35.9601 27.8121C35.8727 28.9845 35.0212 29.7836 33.928 29.7981H8.67733C7.31171 29.6781 6.4974 28.6142 6.64517 27.4318L7.72609 21.6851L6.08307 5.5435L1.41346 4.10691C0.272325 3.66412 -0.193419 2.65526 0.0730986 1.61385C0.516249 0.5285 1.57811 0.0326191 2.6241 0.303932L8.59084 2.16317C9.39467 2.45765 9.85709 3.10069 9.97443 3.8534L10.3203 7.0648L37.3869 10.0227C38.6305 10.2859 39.3057 11.2486 39.1596 12.3467V12.3467ZM14.8644 33.9681C14.8644 35.6425 13.4755 36.9999 11.7621 36.9999C10.0487 36.9999 8.65983 35.6425 8.65983 33.9681C8.65983 32.2937 10.0488 30.9363 11.7621 30.9363C13.4754 30.9363 14.8644 32.2937 14.8644 33.9681ZM33.3848 33.9681C33.3848 35.6425 31.9959 36.9999 30.2825 36.9999C28.5692 36.9999 27.1802 35.6425 27.1802 33.9681C27.1802 32.2937 28.5692 30.9363 30.2825 30.9363C31.9959 30.9363 33.3848 32.2937 33.3848 33.9681Z" fill="white"/>
</svg>
