<svg width="268" height="71" viewBox="0 0 268 71" fill="none" xmlns="http://www.w3.org/2000/svg">
<path d="M4.69581 15.0394H50.0021L54.6979 62.5639H0L4.69581 15.0394Z" fill="#31C28D"/>
<rect x="17.2613" y="2.71005" width="20.6238" height="42.5927" rx="10.3119" stroke="#2FC18C" stroke-width="4.03509"/>
<path d="M31.2358 37.6567L31.2358 47.1719C31.2358 48.6051 30.0739 49.767 28.6407 49.767C27.2075 49.767 26.0457 48.6051 26.0457 47.1719L26.0457 37.6567" stroke="white" stroke-width="2.69006" stroke-linecap="round" stroke-linejoin="round"/>
<path d="M10.4753 38.5217L10.4753 32.8991C10.4753 27.4051 14.929 22.9514 20.423 22.9514L21.288 22.9514C26.782 22.9514 31.2358 27.4051 31.2358 32.8991L31.2358 38.5217" stroke="white" stroke-width="2.69006" stroke-linecap="round" stroke-linejoin="round"/>
<path d="M26.0458 35.0616L26.0458 36.7002L26.0458 39.3867C26.0458 40.82 24.8839 41.9818 23.4507 41.9818C22.0175 41.9818 20.8557 40.82 20.8557 39.3867L20.8557 36.6344L20.8557 35.0616" stroke="white" stroke-width="2.69006" stroke-linecap="round" stroke-linejoin="round"/>
<path d="M20.8554 35.0616L20.8554 36.7002L20.8554 39.3867C20.8554 40.82 19.6936 41.9818 18.2603 41.9818C16.8271 41.9818 15.6653 40.82 15.6653 39.3867L15.6653 36.6344L15.6653 35.0616" stroke="white" stroke-width="2.69006" stroke-linecap="round" stroke-linejoin="round"/>
<path d="M15.6654 35.0616L15.6654 36.7002L15.6654 39.3867C15.6654 40.82 14.5036 41.9818 13.0703 41.9818C11.6371 41.9818 10.4753 40.82 10.4753 39.3867L10.4753 36.6344L10.4753 35.0616" stroke="white" stroke-width="2.69006" stroke-linecap="round" stroke-linejoin="round"/>
<path d="M19.9905 47.1719C19.9905 48.0812 20.1308 48.9576 20.3909 49.7809C20.6818 50.7016 21.1226 51.5558 21.6847 52.3147C23.2605 54.4427 25.7895 55.8221 28.6407 55.8221C31.492 55.8221 34.021 54.4427 35.5968 52.3147C36.1589 51.5558 36.5997 50.7016 36.8906 49.7809C37.1507 48.9576 37.291 48.0812 37.291 47.1719" stroke="white" stroke-width="2.69006" stroke-linecap="round"/>
<circle cx="39.9026" cy="36.56" r="4.48344" fill="white"/>
<path d="M74.4109 22.6471L76.8751 20.0421V30.9724L75.1853 29.5996H85.7988V33.8238H75.1853L76.8751 32.3453V44.3845H71.4187V18.4228H87.3653V22.6471H74.4109ZM91.1512 44.3845V18.4228H101.677C104.399 18.4228 106.429 19.0447 107.767 20.2885C109.116 21.5206 109.791 23.2983 109.791 25.6217C109.791 26.9594 109.533 28.1035 109.016 29.0539C108.512 29.9926 107.884 30.7202 107.133 31.2365C106.394 31.7528 105.678 32.0402 104.986 32.0989C105.702 32.1459 106.376 32.3277 107.01 32.6446C107.655 32.9496 108.183 33.4366 108.594 34.1054C109.005 34.7743 109.21 35.672 109.21 36.7984C109.21 37.6315 109.21 38.4529 109.21 39.2626C109.21 40.0722 109.21 40.8995 109.21 41.7443C109.21 42.3193 109.251 42.8532 109.333 43.3461C109.427 43.8272 109.562 44.1733 109.738 44.3845H104.264C104.112 44.1498 103.988 43.7978 103.894 43.3285C103.801 42.8474 103.754 42.3193 103.754 41.7443C103.754 40.9934 103.754 40.2776 103.754 39.597C103.754 38.9047 103.754 38.183 103.754 37.4321C103.754 36.4112 103.49 35.625 102.962 35.0735C102.434 34.5103 101.589 34.2287 100.427 34.2287H95.0411L96.502 32.4861V44.3845H91.1512ZM96.502 31.9933L95.0411 30.0044H100.497C101.202 30.0044 101.829 29.846 102.381 29.5291C102.932 29.2123 103.366 28.7606 103.683 28.1739C104.012 27.5872 104.176 26.9007 104.176 26.1145C104.176 25.0115 103.842 24.1549 103.173 23.5448C102.516 22.9346 101.589 22.6295 100.392 22.6295H94.9179L96.502 20.8518V31.9933ZM124.583 44.8069C122.963 44.8069 121.45 44.5136 120.042 43.9269C118.634 43.3402 117.396 42.4777 116.328 41.3395C115.26 40.2013 114.421 38.7991 113.811 37.1328C113.201 35.4549 112.896 33.5363 112.896 31.3773C112.896 29.2065 113.195 27.2938 113.793 25.6393C114.403 23.9731 115.242 22.5767 116.31 21.4502C117.378 20.3237 118.616 19.473 120.024 18.8981C121.432 18.3231 122.952 18.0356 124.583 18.0356C126.202 18.0356 127.716 18.3231 129.124 18.8981C130.544 19.473 131.787 20.3237 132.855 21.4502C133.923 22.5767 134.756 23.9731 135.355 25.6393C135.953 27.2938 136.252 29.2065 136.252 31.3773C136.252 33.5363 135.947 35.4549 135.337 37.1328C134.739 38.7991 133.9 40.2013 132.82 41.3395C131.752 42.4777 130.508 43.3402 129.089 43.9269C127.681 44.5136 126.179 44.8069 124.583 44.8069ZM124.583 40.4243C125.674 40.4243 126.683 40.125 127.61 39.5266C128.549 38.9282 129.3 37.966 129.863 36.64C130.426 35.3023 130.708 33.5481 130.708 31.3773C130.708 29.1947 130.42 27.4463 129.845 26.1321C129.282 24.8179 128.537 23.8733 127.61 23.2983C126.683 22.7116 125.674 22.4183 124.583 22.4183C123.491 22.4183 122.476 22.7116 121.538 23.2983C120.611 23.8733 119.866 24.8179 119.302 26.1321C118.739 27.4463 118.458 29.1947 118.458 31.3773C118.458 33.5598 118.739 35.3141 119.302 36.64C119.866 37.966 120.611 38.9282 121.538 39.5266C122.476 40.125 123.491 40.4243 124.583 40.4243ZM145.197 44.3845H139.864V18.4228H148.348L157.043 42.4132L156.127 42.642V18.4228H161.443V44.3845H152.906L144.211 20.4646L145.197 20.2357V44.3845ZM182.981 22.6471H174.41L176.592 20.0421V44.3845H171.153V20.0421L173.406 22.6471H164.782V18.4228H182.981V22.6471ZM182.627 36.0944V32.7502H195.458V36.0944H182.627ZM202.364 22.6471L204.828 20.0421V30.7964L203.596 29.2475H213.171V33.4718H203.596L204.828 31.9229V42.7652L202.364 40.1602H215.125V44.3845H199.336V18.4228H215.125V22.6471H202.364ZM224.746 44.3845H219.413V18.4228H227.897L236.591 42.4132L235.676 42.642V18.4228H240.992V44.3845H232.455L223.76 20.4646L224.746 20.2357V44.3845ZM245.299 44.3845V18.4228H253.695C255.431 18.4228 257.009 18.7396 258.429 19.3733C259.861 19.9952 261.087 20.8811 262.108 22.0311C263.141 23.1693 263.933 24.5304 264.484 26.1145C265.036 27.6986 265.311 29.447 265.311 31.3597C265.311 33.2723 265.036 35.0266 264.484 36.6224C263.933 38.2183 263.141 39.597 262.108 40.7587C261.087 41.9086 259.861 42.8004 258.429 43.4341C257.009 44.0677 255.431 44.3845 253.695 44.3845H245.299ZM250.79 42.7652L248.326 40.1602H252.991C254.258 40.1602 255.402 39.8082 256.423 39.1042C257.455 38.3884 258.271 37.3734 258.869 36.0592C259.468 34.7332 259.767 33.1667 259.767 31.3597C259.767 29.5409 259.468 27.9861 258.869 26.6954C258.271 25.3929 257.455 24.3955 256.423 23.7032C255.402 22.9991 254.258 22.6471 252.991 22.6471H248.326L250.79 20.0421V42.7652Z" fill="white"/>
<path d="M108.086 65.5354C106.878 65.5354 105.809 65.2673 104.88 64.7312C103.959 64.1875 103.234 63.4475 102.706 62.5111C102.185 61.5672 101.924 60.4949 101.924 59.2943C101.924 58.0936 102.185 57.0289 102.706 56.1001C103.234 55.1713 103.959 54.4426 104.88 53.914C105.809 53.3854 106.878 53.1211 108.086 53.1211C109.294 53.1211 110.359 53.3854 111.28 53.914C112.209 54.4426 112.934 55.1713 113.455 56.1001C113.983 57.0289 114.248 58.0936 114.248 59.2943C114.248 60.4949 113.983 61.5672 113.455 62.5111C112.934 63.4475 112.209 64.1875 111.28 64.7312C110.359 65.2673 109.294 65.5354 108.086 65.5354ZM108.086 63.7684C108.917 63.7684 109.649 63.5834 110.283 63.2134C110.918 62.8434 111.412 62.3223 111.767 61.6503C112.13 60.9782 112.311 60.1929 112.311 59.2943C112.311 58.3957 112.13 57.6179 111.767 56.9609C111.412 56.2964 110.918 55.7867 110.283 55.4318C109.649 55.0693 108.917 54.8881 108.086 54.8881C107.263 54.8881 106.53 55.0693 105.889 55.4318C105.254 55.7867 104.756 56.2964 104.393 56.9609C104.038 57.6179 103.861 58.3957 103.861 59.2943C103.861 60.1929 104.038 60.9782 104.393 61.6503C104.756 62.3223 105.254 62.8434 105.889 63.2134C106.53 63.5834 107.263 63.7684 108.086 63.7684ZM125.864 65.3202V59.5548C125.864 59.2074 125.864 58.9242 125.864 58.7053C125.864 58.4787 125.864 58.2635 125.864 58.0596C125.864 57.4329 125.758 56.8854 125.546 56.4172C125.335 55.949 125.003 55.5866 124.55 55.3298C124.097 55.0731 123.504 54.9447 122.771 54.9447C122.129 54.9447 121.533 55.1108 120.982 55.4431C120.438 55.7678 120 56.2096 119.668 56.7684C119.343 57.3196 119.181 57.9388 119.181 58.626L118.082 58.2069C118.082 57.263 118.312 56.4059 118.773 55.6357C119.241 54.8654 119.86 54.2538 120.631 53.8007C121.408 53.3401 122.254 53.1097 123.168 53.1097C124.097 53.1097 124.908 53.2872 125.603 53.6421C126.298 53.997 126.834 54.5067 127.211 55.1713C127.597 55.8282 127.789 56.6211 127.789 57.5499C127.789 57.8822 127.789 58.2446 127.789 58.6373C127.789 59.03 127.789 59.3962 127.789 59.736V65.3202H125.864ZM117.255 65.3202V53.291H119.181V65.3202H117.255ZM133.221 47.6162V65.3202H131.318V47.6162H133.221ZM136.859 65.3202V53.291H138.762V65.3202H136.859ZM137.821 50.5272C137.467 50.5272 137.157 50.429 136.893 50.2327C136.636 50.0288 136.508 49.7532 136.508 49.4058C136.508 49.066 136.636 48.798 136.893 48.6016C137.157 48.3977 137.467 48.2958 137.821 48.2958C138.176 48.2958 138.482 48.3977 138.739 48.6016C138.996 48.798 139.124 49.066 139.124 49.4058C139.124 49.7532 138.996 50.0288 138.739 50.2327C138.482 50.429 138.176 50.5272 137.821 50.5272ZM150.951 65.3202V59.5548C150.951 59.2074 150.951 58.9242 150.951 58.7053C150.951 58.4787 150.951 58.2635 150.951 58.0596C150.951 57.4329 150.845 56.8854 150.634 56.4172C150.422 55.949 150.09 55.5866 149.637 55.3298C149.184 55.0731 148.591 54.9447 147.859 54.9447C147.217 54.9447 146.62 55.1108 146.069 55.4431C145.525 55.7678 145.087 56.2096 144.755 56.7684C144.43 57.3196 144.268 57.9388 144.268 58.626L143.169 58.2069C143.169 57.263 143.4 56.4059 143.86 55.6357C144.328 54.8654 144.948 54.2538 145.718 53.8007C146.496 53.3401 147.341 53.1097 148.255 53.1097C149.184 53.1097 149.996 53.2872 150.69 53.6421C151.385 53.997 151.921 54.5067 152.299 55.1713C152.684 55.8282 152.877 56.6211 152.877 57.5499C152.877 57.8822 152.877 58.2446 152.877 58.6373C152.877 59.03 152.877 59.3962 152.877 59.736V65.3202H150.951ZM142.342 65.3202V53.291H144.268V65.3202H142.342ZM156.859 60.0758V58.3541H166.158L165.818 58.9205C165.818 58.8752 165.818 58.8336 165.818 58.7959C165.818 58.7506 165.818 58.709 165.818 58.6713C165.818 57.9766 165.671 57.3422 165.377 56.7684C165.09 56.1869 164.659 55.7225 164.085 55.3751C163.511 55.0278 162.802 54.8541 161.956 54.8541C161.102 54.8541 160.351 55.0353 159.702 55.3978C159.052 55.7603 158.546 56.2737 158.184 56.9383C157.821 57.5952 157.64 58.3806 157.64 59.2943C157.64 60.2231 157.814 61.0235 158.161 61.6956C158.516 62.3676 159.018 62.8849 159.668 63.2474C160.317 63.6098 161.087 63.7911 161.978 63.7911C162.613 63.7911 163.164 63.7269 163.632 63.5985C164.1 63.4626 164.485 63.2851 164.788 63.0661C165.097 62.8396 165.331 62.5942 165.49 62.3299C165.648 62.0656 165.743 61.8013 165.773 61.537H167.699C167.661 62.0203 167.51 62.4998 167.245 62.9755C166.981 63.4512 166.607 63.8854 166.124 64.2781C165.641 64.6632 165.048 64.9728 164.346 65.2069C163.644 65.441 162.836 65.5581 161.922 65.5581C160.714 65.5581 159.649 65.2938 158.728 64.7652C157.806 64.2366 157.081 63.5041 156.553 62.5677C156.032 61.6314 155.771 60.5553 155.771 59.3396C155.771 58.1087 156.036 57.0289 156.564 56.1001C157.093 55.1637 157.821 54.4312 158.75 53.9026C159.679 53.374 160.74 53.1097 161.933 53.1097C163.149 53.1097 164.202 53.374 165.093 53.9026C165.984 54.4312 166.672 55.1562 167.155 56.0774C167.638 56.9911 167.88 58.0332 167.88 59.2036C167.88 59.3245 167.876 59.483 167.868 59.6794C167.861 59.8757 167.85 60.0079 167.834 60.0758H156.859ZM181.143 65.5467C180.418 65.5467 179.746 65.4712 179.127 65.3202C178.515 65.1616 177.979 64.9351 177.519 64.6406C177.066 64.3385 176.711 63.9685 176.454 63.5305C176.205 63.0926 176.08 62.5904 176.08 62.0241C176.08 61.9636 176.08 61.9032 176.08 61.8428C176.08 61.7749 176.08 61.7182 176.08 61.6729H178.017C178.017 61.7182 178.017 61.756 178.017 61.7862C178.017 61.8164 178.017 61.8617 178.017 61.9221C178.017 62.5338 178.3 63.0019 178.867 63.3266C179.433 63.6438 180.207 63.8024 181.189 63.8024C181.793 63.8024 182.333 63.742 182.808 63.6211C183.284 63.5003 183.658 63.3153 183.93 63.0661C184.209 62.8169 184.349 62.5036 184.349 62.126C184.349 61.4992 184.054 61.0537 183.465 60.7894C182.884 60.5176 182.012 60.2835 180.849 60.0871C180.237 59.9814 179.656 59.8455 179.104 59.6794C178.553 59.5057 178.062 59.2829 177.632 59.0111C177.209 58.7392 176.873 58.4032 176.624 58.003C176.382 57.5952 176.261 57.1082 176.261 56.5418C176.261 55.8093 176.477 55.1901 176.907 54.6842C177.345 54.1707 177.934 53.7818 178.674 53.5175C179.414 53.2457 180.237 53.1097 181.143 53.1097C182.019 53.1097 182.827 53.2494 183.567 53.5288C184.307 53.8082 184.9 54.216 185.346 54.7522C185.799 55.2807 186.025 55.9339 186.025 56.7117C186.025 56.7419 186.025 56.7797 186.025 56.825C186.025 56.8627 186.025 56.9005 186.025 56.9383H184.1C184.1 56.9005 184.1 56.8703 184.1 56.8476C184.1 56.825 184.1 56.7986 184.1 56.7684C184.1 56.3304 183.96 55.9717 183.681 55.6923C183.401 55.4053 183.039 55.1939 182.593 55.058C182.148 54.9145 181.672 54.8428 181.166 54.8428C180.69 54.8428 180.222 54.8956 179.761 55.0013C179.301 55.0995 178.919 55.2656 178.617 55.4997C178.315 55.7338 178.164 56.0548 178.164 56.4625C178.164 56.8703 178.304 57.1988 178.583 57.448C178.87 57.6896 179.271 57.8897 179.784 58.0483C180.305 58.1993 180.917 58.339 181.619 58.4674C182.246 58.5807 182.839 58.7241 183.397 58.8978C183.956 59.0639 184.447 59.2792 184.87 59.5435C185.3 59.8077 185.636 60.1438 185.878 60.5515C186.127 60.9518 186.252 61.4426 186.252 62.0241C186.252 62.6131 186.116 63.1265 185.844 63.5645C185.58 64.0025 185.21 64.3687 184.734 64.6632C184.266 64.9577 183.722 65.1767 183.103 65.3202C182.491 65.4712 181.838 65.5467 181.143 65.5467ZM193.757 65.5014C193.387 65.5014 193.025 65.4599 192.67 65.3768C192.315 65.2938 191.994 65.1465 191.707 64.9351C191.427 64.7161 191.205 64.4103 191.039 64.0176C190.872 63.6174 190.789 63.1039 190.789 62.4771C190.789 62.3186 190.789 62.1562 190.789 61.9901C190.789 61.8164 190.789 61.6352 190.789 61.4464V54.99H187.856V53.291H189.736C189.993 53.291 190.193 53.2834 190.336 53.2683C190.48 53.2457 190.582 53.1966 190.642 53.1211C190.71 53.038 190.752 52.9134 190.767 52.7473C190.782 52.5736 190.789 52.3357 190.789 52.0337V49.3039H192.726V53.291H196.487V54.99H192.726V60.8234C192.726 60.9895 192.726 61.1519 192.726 61.3105C192.726 61.469 192.726 61.6163 192.726 61.7522C192.726 62.3941 192.802 62.8962 192.953 63.2587C193.111 63.6211 193.463 63.8024 194.006 63.8024C194.225 63.8024 194.433 63.7835 194.629 63.7457C194.826 63.708 194.973 63.6702 195.071 63.6325V65.3089C194.943 65.3542 194.761 65.3957 194.527 65.4335C194.301 65.4788 194.044 65.5014 193.757 65.5014ZM204.254 65.5354C203.046 65.5354 201.978 65.2673 201.049 64.7312C200.128 64.1875 199.403 63.4475 198.874 62.5111C198.353 61.5672 198.092 60.4949 198.092 59.2943C198.092 58.0936 198.353 57.0289 198.874 56.1001C199.403 55.1713 200.128 54.4426 201.049 53.914C201.978 53.3854 203.046 53.1211 204.254 53.1211C205.463 53.1211 206.527 53.3854 207.448 53.914C208.377 54.4426 209.102 55.1713 209.623 56.1001C210.152 57.0289 210.416 58.0936 210.416 59.2943C210.416 60.4949 210.152 61.5672 209.623 62.5111C209.102 63.4475 208.377 64.1875 207.448 64.7312C206.527 65.2673 205.463 65.5354 204.254 65.5354ZM204.254 63.7684C205.085 63.7684 205.817 63.5834 206.452 63.2134C207.086 62.8434 207.581 62.3223 207.936 61.6503C208.298 60.9782 208.479 60.1929 208.479 59.2943C208.479 58.3957 208.298 57.6179 207.936 56.9609C207.581 56.2964 207.086 55.7867 206.452 55.4318C205.817 55.0693 205.085 54.8881 204.254 54.8881C203.431 54.8881 202.699 55.0693 202.057 55.4318C201.423 55.7867 200.924 56.2964 200.562 56.9609C200.207 57.6179 200.029 58.3957 200.029 59.2943C200.029 60.1929 200.207 60.9782 200.562 61.6503C200.924 62.3223 201.423 62.8434 202.057 63.2134C202.699 63.5834 203.431 63.7684 204.254 63.7684ZM213.423 65.3202V53.291H215.349V56.9836L214.715 56.757C214.76 56.3115 214.873 55.8735 215.055 55.4431C215.236 55.0051 215.485 54.6125 215.802 54.2651C216.127 53.9102 216.531 53.6308 217.014 53.4269C217.497 53.2155 218.064 53.1097 218.713 53.1097C219.196 53.1097 219.589 53.1513 219.891 53.2343C220.201 53.3099 220.393 53.3703 220.469 53.4156L219.97 55.3072C219.895 55.2543 219.74 55.1864 219.506 55.1033C219.279 55.0202 218.955 54.9787 218.532 54.9787C217.905 54.9787 217.384 55.092 216.969 55.3185C216.561 55.545 216.236 55.8471 215.995 56.2247C215.761 56.5947 215.594 56.9987 215.496 57.4366C215.398 57.8746 215.349 58.3088 215.349 58.7392V65.3202H213.423ZM222.94 60.0758V58.3541H232.239L231.899 58.9205C231.899 58.8752 231.899 58.8336 231.899 58.7959C231.899 58.7506 231.899 58.709 231.899 58.6713C231.899 57.9766 231.752 57.3422 231.458 56.7684C231.171 56.1869 230.74 55.7225 230.166 55.3751C229.593 55.0278 228.883 54.8541 228.037 54.8541C227.184 54.8541 226.432 55.0353 225.783 55.3978C225.134 55.7603 224.628 56.2737 224.265 56.9383C223.903 57.5952 223.721 58.3806 223.721 59.2943C223.721 60.2231 223.895 61.0235 224.242 61.6956C224.597 62.3676 225.1 62.8849 225.749 63.2474C226.398 63.6098 227.169 63.7911 228.06 63.7911C228.694 63.7911 229.245 63.7269 229.713 63.5985C230.182 63.4626 230.567 63.2851 230.869 63.0661C231.178 62.8396 231.412 62.5942 231.571 62.3299C231.73 62.0656 231.824 61.8013 231.854 61.537H233.78C233.742 62.0203 233.591 62.4998 233.327 62.9755C233.062 63.4512 232.689 63.8854 232.205 64.2781C231.722 64.6632 231.129 64.9728 230.427 65.2069C229.725 65.441 228.917 65.5581 228.003 65.5581C226.795 65.5581 225.73 65.2938 224.809 64.7652C223.888 64.2366 223.163 63.5041 222.634 62.5677C222.113 61.6314 221.852 60.5553 221.852 59.3396C221.852 58.1087 222.117 57.0289 222.645 56.1001C223.174 55.1637 223.903 54.4312 224.831 53.9026C225.76 53.374 226.821 53.1097 228.014 53.1097C229.23 53.1097 230.283 53.374 231.175 53.9026C232.066 54.4312 232.753 55.1562 233.236 56.0774C233.719 56.9911 233.961 58.0332 233.961 59.2036C233.961 59.3245 233.957 59.483 233.95 59.6794C233.942 59.8757 233.931 60.0079 233.916 60.0758H222.94Z" fill="#2FC18C"/>
</svg>
